<svg width="24" height="25" viewBox="0 0 24 25" fill="none" xmlns="http://www.w3.org/2000/svg">
<path d="M6.44998 9.73004H17.55C18.0406 9.73004 18.5112 9.92495 18.8581 10.2719C19.2051 10.6188 19.4 11.0894 19.4 11.58V18.052C19.3994 19.033 19.0094 19.9736 18.3156 20.667C17.6217 21.3605 16.6809 21.75 15.7 21.75H8.29998C7.31902 21.75 6.37821 21.3605 5.68439 20.667C4.99056 19.9736 4.60051 19.033 4.59998 18.052V11.58C4.59998 11.0894 4.79489 10.6188 5.14183 10.2719C5.48877 9.92495 5.95932 9.73004 6.44998 9.73004Z" stroke="white" stroke-width="2" stroke-linecap="round" stroke-linejoin="round"/>
<path d="M16.625 12.053V7.88102C16.6269 6.96562 16.3569 6.07029 15.8491 5.30863C15.3413 4.54697 14.6187 3.95332 13.773 3.60302C13.0697 3.31165 12.3055 3.1983 11.5479 3.27301C10.7904 3.34772 10.0629 3.60817 9.43013 4.03129C8.79733 4.45441 8.2787 5.02712 7.92021 5.69865C7.56172 6.37018 7.37445 7.11979 7.375 7.88102V12.053" stroke="white" stroke-width="2" stroke-linecap="round" stroke-linejoin="round"/>
</svg>
