<svg width="24" height="24" viewBox="0 0 24 24" fill="none" xmlns="http://www.w3.org/2000/svg">
<path fill-rule="evenodd" clip-rule="evenodd" d="M11.5 3.00001C11.7449 3.00005 11.9813 3.08997 12.1644 3.25273C12.3474 3.41549 12.4643 3.63976 12.493 3.88301L12.5 4.00001V11.19L19.44 9.29801C19.6958 9.22851 19.9687 9.26341 20.1988 9.39504C20.4289 9.52668 20.5973 9.74427 20.667 10C21.1898 11.9167 21.0986 13.9491 20.4061 15.8112C19.7137 17.6733 18.4548 19.2715 16.8067 20.3809C15.1586 21.4903 13.2042 22.0551 11.2184 21.9958C9.23254 21.9365 7.31528 21.2561 5.73628 20.0504C4.15729 18.8447 2.99604 17.1743 2.4159 15.2741C1.83575 13.374 1.86591 11.3398 2.50213 9.45776C3.13834 7.57568 4.3486 5.94042 5.96264 4.78202C7.57668 3.62363 9.51328 3.0004 11.5 3.00001ZM12.5 14C11.8369 14 11.2011 14.2634 10.7322 14.7322C10.2634 15.2011 9.99998 15.837 9.99998 16.5C9.99998 17.1631 10.2634 17.7989 10.7322 18.2678C11.2011 18.7366 11.8369 19 12.5 19C13.163 19 13.7989 18.7366 14.2677 18.2678C14.7366 17.7989 15 17.1631 15 16.5C15 15.837 14.7366 15.2011 14.2677 14.7322C13.7989 14.2634 13.163 14 12.5 14ZM12.5 16C12.6326 16 12.7598 16.0527 12.8535 16.1465C12.9473 16.2402 13 16.3674 13 16.5C13 16.6326 12.9473 16.7598 12.8535 16.8536C12.7598 16.9473 12.6326 17 12.5 17C12.3674 17 12.2402 16.9473 12.1464 16.8536C12.0527 16.7598 12 16.6326 12 16.5C12 16.3674 12.0527 16.2402 12.1464 16.1465C12.2402 16.0527 12.3674 16 12.5 16ZM17 13C16.755 13 16.5186 13.09 16.3356 13.2527C16.1526 13.4155 16.0356 13.6398 16.007 13.883L16 14.01C16.0003 14.2649 16.0979 14.51 16.2728 14.6954C16.4478 14.8807 16.6869 14.9922 16.9414 15.0072C17.1958 15.0221 17.4464 14.9393 17.6418 14.7757C17.8373 14.6122 17.9629 14.3801 17.993 14.127L18 14C18 13.7348 17.8946 13.4804 17.7071 13.2929C17.5196 13.1054 17.2652 13 17 13ZM7.49998 12C7.10216 12 6.72063 12.158 6.43932 12.4394C6.15802 12.7207 5.99998 13.1022 5.99998 13.5C5.99998 13.8978 6.15802 14.2794 6.43932 14.5607C6.72063 14.842 7.10216 15 7.49998 15C7.89781 15 8.27934 14.842 8.56064 14.5607C8.84195 14.2794 8.99998 13.8978 8.99998 13.5C8.99998 13.1022 8.84195 12.7207 8.56064 12.4394C8.27934 12.158 7.89781 12 7.49998 12ZM15.294 2.04401C17.4077 2.6963 19.2283 4.0643 20.443 5.91301C20.5852 6.12963 20.6378 6.393 20.5897 6.64762C20.5416 6.90225 20.3965 7.12826 20.185 7.27801L20.084 7.34101L14.476 10.379C14.3217 10.4626 14.1481 10.5041 13.9726 10.4994C13.7972 10.4947 13.6261 10.4438 13.4765 10.352C13.3269 10.2602 13.2041 10.1306 13.1205 9.97634C13.0369 9.82205 12.9953 9.64846 13 9.47301L13.012 9.34801L14.012 2.84801C14.0338 2.70611 14.0859 2.57056 14.1648 2.45059C14.2437 2.33062 14.3474 2.22904 14.4691 2.15276C14.5907 2.07648 14.7273 2.02728 14.8697 2.00852C15.012 1.98975 15.1567 2.00186 15.294 2.04401ZM7.99998 8.00001C7.75505 8.00005 7.51865 8.08997 7.33561 8.25273C7.15258 8.41549 7.03564 8.63976 7.00698 8.88301L6.99998 9.01001C7.00027 9.26489 7.09786 9.51005 7.27283 9.69538C7.4478 9.88072 7.68694 9.99225 7.94138 10.0072C8.19582 10.0221 8.44636 9.93934 8.64182 9.77575C8.83727 9.61216 8.96288 9.38011 8.99298 9.12701L8.99998 9.00001C8.99998 8.7348 8.89463 8.48044 8.70709 8.29291C8.51955 8.10537 8.2652 8.00001 7.99998 8.00001ZM15.798 4.38801L15.295 7.66101L18.102 6.14001C17.455 5.41195 16.6725 4.81687 15.798 4.38801Z" fill="black"/>
</svg>
